<svg width="96" height="96" viewBox="0 0 96 96" fill="none" xmlns="http://www.w3.org/2000/svg">
<path d="M12.4801 25.92C11.9708 25.92 11.4825 26.1223 11.1224 26.4823C10.7623 26.8424 10.5601 27.3308 10.5601 27.84C10.5601 28.3492 10.7623 28.8376 11.1224 29.1976C11.4825 29.5577 11.9708 29.76 12.4801 29.76C12.9893 29.76 13.4776 29.5577 13.8377 29.1976C14.1978 28.8376 14.4001 28.3492 14.4001 27.84C14.4001 27.3308 14.1978 26.8424 13.8377 26.4823C13.4776 26.1223 12.9893 25.92 12.4801 25.92Z" fill="#EE3E54"/>
<path d="M73.92 11.52C73.6654 11.52 73.4212 11.6212 73.2411 11.8012C73.0611 11.9812 72.96 12.2254 72.96 12.48C72.96 12.7346 73.0611 12.9788 73.2411 13.1588C73.4212 13.3389 73.6654 13.44 73.92 13.44C74.1746 13.44 74.4187 13.3389 74.5988 13.1588C74.7788 12.9788 74.88 12.7346 74.88 12.48C74.88 12.2254 74.7788 11.9812 74.5988 11.8012C74.4187 11.6212 74.1746 11.52 73.92 11.52Z" fill="#F1BC19"/>
<path d="M48 12.48C38.5795 12.48 29.5448 16.2223 22.8835 22.8835C16.2223 29.5448 12.48 38.5795 12.48 48C12.48 57.4205 16.2223 66.4551 22.8835 73.1164C29.5448 79.7777 38.5795 83.52 48 83.52C57.4205 83.52 66.4551 79.7777 73.1164 73.1164C79.7777 66.4551 83.52 57.4205 83.52 48C83.52 38.5795 79.7777 29.5448 73.1164 22.8835C66.4551 16.2223 57.4205 12.48 48 12.48Z" fill="#FCE0A2"/>
<path d="M79.6801 10.56C78.6617 10.56 77.6849 10.9646 76.9648 11.6847C76.2447 12.4048 75.8401 13.3816 75.8401 14.4C75.8401 15.4184 76.2447 16.3951 76.9648 17.1153C77.6849 17.8354 78.6617 18.24 79.6801 18.24C80.6985 18.24 81.6752 17.8354 82.3954 17.1153C83.1155 16.3951 83.5201 15.4184 83.5201 14.4C83.5201 13.3816 83.1155 12.4048 82.3954 11.6847C81.6752 10.9646 80.6985 10.56 79.6801 10.56Z" fill="#F1BC19"/>
<path d="M83.5201 21.12C83.0109 21.12 82.5225 21.3223 82.1625 21.6824C81.8024 22.0424 81.6001 22.5308 81.6001 23.04C81.6001 23.5492 81.8024 24.0376 82.1625 24.3976C82.5225 24.7577 83.0109 24.96 83.5201 24.96C84.0293 24.96 84.5177 24.7577 84.8777 24.3976C85.2378 24.0376 85.4401 23.5492 85.4401 23.04C85.4401 22.5308 85.2378 22.0424 84.8777 21.6824C84.5177 21.3223 84.0293 21.12 83.5201 21.12Z" fill="#EE3E54"/>
<path d="M77.7601 71.04C77.2508 71.04 76.7625 71.2423 76.4024 71.6024C76.0423 71.9624 75.8401 72.4508 75.8401 72.96C75.8401 73.4692 76.0423 73.9576 76.4024 74.3177C76.7625 74.6777 77.2508 74.88 77.7601 74.88C78.2693 74.88 78.7576 74.6777 79.1177 74.3177C79.4778 73.9576 79.6801 73.4692 79.6801 72.96C79.6801 72.4508 79.4778 71.9624 79.1177 71.6024C78.7576 71.2423 78.2693 71.04 77.7601 71.04ZM14.4001 56.64C13.3816 56.64 12.4049 57.0446 11.6848 57.7647C10.9646 58.4849 10.5601 59.4616 10.5601 60.48C10.5601 61.4984 10.9646 62.4752 11.6848 63.1953C12.4049 63.9154 13.3816 64.32 14.4001 64.32C15.4185 64.32 16.3952 63.9154 17.1153 63.1953C17.8355 62.4752 18.2401 61.4984 18.2401 60.48C18.2401 59.4616 17.8355 58.4849 17.1153 57.7647C16.3952 57.0446 15.4185 56.64 14.4001 56.64Z" fill="#FBCD59"/>
<path d="M24.0001 81.6C23.4909 81.6 23.0025 81.8023 22.6424 82.1623C22.2824 82.5224 22.0801 83.0108 22.0801 83.52C22.0801 84.0292 22.2824 84.5175 22.6424 84.8776C23.0025 85.2377 23.4909 85.44 24.0001 85.44C24.5093 85.44 24.9977 85.2377 25.3577 84.8776C25.7178 84.5175 25.9201 84.0292 25.9201 83.52C25.9201 83.0108 25.7178 82.5224 25.3577 82.1623C24.9977 81.8023 24.5093 81.6 24.0001 81.6Z" fill="#EE3E54"/>
<path d="M17.7601 48.96C17.1236 48.96 16.5131 49.2129 16.0631 49.663C15.613 50.1131 15.3601 50.7235 15.3601 51.36C15.3601 51.9965 15.613 52.607 16.0631 53.0571C16.5131 53.5072 17.1236 53.76 17.7601 53.76C18.3966 53.76 19.0071 53.5072 19.4572 53.0571C19.9073 52.607 20.1601 51.9965 20.1601 51.36C20.1601 50.7235 19.9073 50.1131 19.4572 49.663C19.0071 49.2129 18.3966 48.96 17.7601 48.96Z" fill="white"/>
<path d="M20.16 63.36C19.9053 63.36 19.6612 63.4611 19.4811 63.6412C19.3011 63.8212 19.2 64.0654 19.2 64.32C19.2 64.5746 19.3011 64.8188 19.4811 64.9988C19.6612 65.1788 19.9053 65.28 20.16 65.28C20.4146 65.28 20.6587 65.1788 20.8388 64.9988C21.0188 64.8188 21.1199 64.5746 21.1199 64.32C21.1199 64.0654 21.0188 63.8212 20.8388 63.6412C20.6587 63.4611 20.4146 63.36 20.16 63.36Z" fill="#F1BC19"/>
<path d="M76.8001 31.68C76.5455 31.68 76.3013 31.7811 76.1213 31.9612C75.9412 32.1412 75.8401 32.3854 75.8401 32.64C75.8401 32.8946 75.9412 33.1388 76.1213 33.3188C76.3013 33.4988 76.5455 33.6 76.8001 33.6C77.0547 33.6 77.2989 33.4988 77.4789 33.3188C77.6589 33.1388 77.7601 32.8946 77.7601 32.64C77.7601 32.3854 77.6589 32.1412 77.4789 31.9612C77.2989 31.7811 77.0547 31.68 76.8001 31.68Z" fill="white"/>
<path d="M33.6 69.408C29.76 69.408 26.592 66.24 26.592 62.4V33.6C26.592 29.76 29.76 26.592 33.6 26.592H62.4C66.24 26.592 69.408 29.76 69.408 33.6V62.4C69.408 66.24 66.24 69.408 62.4 69.408H33.6Z" fill="#78A2D2"/>
<path d="M62.3999 27.264C65.8559 27.264 68.7359 30.144 68.7359 33.6V62.4C68.7359 65.856 65.8559 68.736 62.3999 68.736H33.5999C30.1439 68.736 27.2639 65.856 27.2639 62.4V33.6C27.2639 30.144 30.1439 27.264 33.5999 27.264H62.3999ZM62.3999 25.92H33.5999C29.3759 25.92 25.9199 29.376 25.9199 33.6V62.4C25.9199 66.624 29.3759 70.08 33.5999 70.08H62.3999C66.6239 70.08 70.0799 66.624 70.0799 62.4V33.6C70.0799 29.376 66.6239 25.92 62.3999 25.92Z" fill="#472B29"/>
<path d="M65.76 45.504C65.472 45.504 65.28 45.312 65.28 45.024V41.28C65.28 40.992 65.472 40.8 65.76 40.8C66.048 40.8 66.24 40.992 66.24 41.28V45.024C66.24 45.312 66.048 45.504 65.76 45.504Z" fill="#472B29"/>
<path d="M65.76 38.88C65.472 38.88 65.28 38.688 65.28 38.4V36.48C65.28 36.192 65.472 36 65.76 36C66.048 36 66.24 36.192 66.24 36.48V38.4C66.24 38.688 66.048 38.88 65.76 38.88Z" fill="#472B29"/>
<path d="M61.44 66.24H34.56C31.872 66.24 29.76 64.128 29.76 61.44V34.56C29.76 31.872 31.872 29.76 34.56 29.76H58.944C59.232 29.76 59.424 29.952 59.424 30.24C59.424 30.528 59.232 30.72 58.944 30.72H34.56C32.448 30.72 30.72 32.448 30.72 34.56V61.44C30.72 63.552 32.448 65.28 34.56 65.28H61.44C63.552 65.28 65.28 63.552 65.28 61.44V47.616C65.28 47.328 65.472 47.136 65.76 47.136C66.048 47.136 66.24 47.328 66.24 47.616V61.44C66.24 64.128 64.128 66.24 61.44 66.24Z" fill="#472B29"/>
<path d="M50.2079 55.872C50.2079 56.736 51.1679 57.216 53.0879 57.216V58.944H42.9119V57.216C44.8319 57.216 45.7919 56.736 45.7919 55.872V46.656C45.7919 45.696 44.8319 45.216 42.9119 45.216V43.488H50.3039V55.872H50.2079ZM50.6879 38.496C50.6879 39.168 50.3999 39.84 49.9199 40.32C49.4399 40.8 48.6719 41.088 47.9039 41.088C47.5199 41.088 47.1359 40.992 46.7519 40.896C46.3679 40.8 46.0799 40.608 45.8879 40.32C45.6959 40.032 45.4079 39.84 45.3119 39.456C45.1199 39.168 45.1199 38.784 45.1199 38.4C45.1199 37.632 45.4079 37.056 45.9839 36.576C46.5599 36.096 47.2319 35.808 47.9999 35.808C48.7679 35.808 49.4399 36.096 50.0159 36.576C50.3999 37.152 50.6879 37.728 50.6879 38.496Z" fill="#FDFCEE"/>
<path d="M53.5679 59.52H42.4319V56.832H42.9119C43.9679 56.832 45.3119 56.64 45.3119 55.968V46.752C45.3119 45.984 44.0639 45.792 42.9119 45.792H42.4319V43.104H50.7839V55.968C50.7839 56.16 50.7839 56.256 50.8799 56.352C51.0719 56.544 51.5519 56.832 53.1839 56.832H53.6639V59.52H53.5679ZM43.3919 58.56H52.7039V57.792C51.4559 57.696 50.6879 57.504 50.2079 57.024C49.9199 56.736 49.8239 56.352 49.8239 55.968V44.064H43.3919V44.832C45.3119 44.928 46.2719 45.504 46.2719 46.656V55.872C46.2719 57.024 45.3119 57.6 43.3919 57.696V58.56ZM47.8079 41.568C47.3279 41.568 46.9439 41.472 46.5599 41.28C46.1759 41.088 45.7919 40.896 45.5039 40.608C45.2159 40.32 44.9279 40.032 44.8319 39.648C44.6399 39.264 44.5439 38.88 44.5439 38.4C44.5439 37.536 44.9279 36.768 45.5039 36.192C46.1759 35.616 46.9439 35.328 47.8079 35.328C48.6719 35.328 49.4399 35.616 50.1119 36.192C50.7839 36.768 51.0719 37.536 51.0719 38.4C51.0719 39.264 50.7839 39.936 50.1119 40.608C49.5359 41.28 48.7679 41.568 47.8079 41.568ZM47.8079 36.384C47.1359 36.384 46.5599 36.576 46.0799 36.96C45.5999 37.344 45.4079 37.824 45.4079 38.4C45.4079 38.688 45.5039 38.976 45.5999 39.168C45.6959 39.456 45.8879 39.648 46.0799 39.84C46.2719 40.032 46.5599 40.224 46.8479 40.32C47.1359 40.416 47.4239 40.512 47.8079 40.512C48.4799 40.512 49.0559 40.32 49.4399 39.84C49.9199 39.456 50.1119 38.976 50.1119 38.4C50.1119 37.824 49.9199 37.344 49.4399 36.96C49.0559 36.576 48.4799 36.384 47.8079 36.384Z" fill="#472B29"/>
</svg>
